<?xml version="1.0" encoding="UTF-8" standalone="no"?>
<!DOCTYPE svg PUBLIC "-//W3C//DTD SVG 1.1//EN"
 "http://www.w3.org/Graphics/SVG/1.1/DTD/svg11.dtd">
<!-- Generated by graphviz version 2.43.0 (0)
 -->
<!-- Title: %3 Pages: 1 -->
<svg width="1555pt" height="172pt"
 viewBox="0.00 0.00 1554.54 171.54" xmlns="http://www.w3.org/2000/svg" xmlns:xlink="http://www.w3.org/1999/xlink">
<g id="graph0" class="graph" transform="scale(1 1) rotate(0) translate(4 167.54)">
<title>%3</title>
<polygon fill="white" stroke="transparent" points="-4,4 -4,-167.54 1550.54,-167.54 1550.54,4 -4,4"/>
<!-- &#45;1 -->
<g id="node1" class="node">
<title>&#45;1</title>
<polygon fill="lightgray" stroke="black" points="1389.03,-163.54 1363.03,-163.54 1363.03,-145.54 1389.03,-145.54 1389.03,-163.54"/>
<text text-anchor="middle" x="1376.03" y="-152.34" font-family="Times,serif" font-size="9.00">&#45;1</text>
</g>
<!-- 1 -->
<g id="node10" class="node">
<title>1</title>
<ellipse fill="lightblue" stroke="black" cx="511.03" cy="-16.26" rx="16.03" ry="16.03"/>
<text text-anchor="middle" x="511.03" y="-14.06" font-family="Times,serif" font-size="9.00">1</text>
</g>
<!-- &#45;1&#45;&gt;1 -->
<g id="edge70" class="edge">
<title>&#45;1&#45;&gt;1</title>
<path fill="none" stroke="red" stroke-width="0.2" d="M1374.89,-145.45C1371.92,-127.9 1362.24,-86.5 1335.03,-68.53 1262.64,-20.71 640.23,-48.91 555.03,-32.53 548.47,-31.26 541.55,-29.22 535.2,-27.04"/>
<polygon fill="red" stroke="red" stroke-width="0.2" points="536.4,-23.76 525.81,-23.59 533.99,-30.32 536.4,-23.76"/>
</g>
<!-- 2 -->
<g id="node11" class="node">
<title>2</title>
<ellipse fill="lightblue" stroke="black" cx="1287.03" cy="-16.26" rx="16.03" ry="16.03"/>
<text text-anchor="middle" x="1287.03" y="-14.06" font-family="Times,serif" font-size="9.00">2</text>
</g>
<!-- &#45;1&#45;&gt;2 -->
<g id="edge99" class="edge">
<title>&#45;1&#45;&gt;2</title>
<path fill="none" stroke="green" stroke-width="0.32" d="M1389.04,-152.02C1424.18,-147.62 1519.62,-133.62 1538.03,-109.54 1549.11,-95.06 1549.56,-82.65 1538.03,-68.53 1509.89,-34.06 1372.39,-22.15 1313.68,-18.6"/>
<polygon fill="green" stroke="green" stroke-width="0.32" points="1313.55,-15.08 1303.36,-18.01 1313.15,-22.07 1313.55,-15.08"/>
</g>
<!-- 4 -->
<g id="node13" class="node">
<title>4</title>
<ellipse fill="lightblue" stroke="black" cx="775.03" cy="-16.26" rx="16.03" ry="16.03"/>
<text text-anchor="middle" x="775.03" y="-14.06" font-family="Times,serif" font-size="9.00">4</text>
</g>
<!-- &#45;1&#45;&gt;4 -->
<g id="edge11" class="edge">
<title>&#45;1&#45;&gt;4</title>
<path fill="none" stroke="green" stroke-width="0.2" d="M1383.65,-145.42C1398.25,-128.88 1426.95,-90.97 1406.03,-68.53 1367.31,-26.97 952.57,-38.08 896.03,-32.53 863.18,-29.3 825.46,-24.34 800.99,-20.96"/>
<polygon fill="green" stroke="green" stroke-width="0.2" points="801.44,-17.49 791.05,-19.57 800.47,-24.42 801.44,-17.49"/>
</g>
<!-- 5 -->
<g id="node14" class="node">
<title>5</title>
<ellipse fill="lightblue" stroke="black" cx="1205.03" cy="-16.26" rx="16.03" ry="16.03"/>
<text text-anchor="middle" x="1205.03" y="-14.06" font-family="Times,serif" font-size="9.00">5</text>
</g>
<!-- &#45;1&#45;&gt;5 -->
<g id="edge69" class="edge">
<title>&#45;1&#45;&gt;5</title>
<path fill="none" stroke="green" stroke-width="0.28" d="M1389.18,-149.4C1405.44,-143.49 1432.41,-130.91 1444.03,-109.54 1452.74,-93.53 1455.61,-82.61 1444.03,-68.53 1391.69,-4.82 1342.35,-51.2 1262.03,-32.53 1251.52,-30.08 1240,-27.06 1230.09,-24.36"/>
<polygon fill="green" stroke="green" stroke-width="0.28" points="1231.02,-20.98 1220.45,-21.69 1229.15,-27.73 1231.02,-20.98"/>
</g>
<!-- 57 -->
<g id="node18" class="node">
<title>57</title>
<ellipse fill="white" stroke="black" cx="726.03" cy="-89.03" rx="20.51" ry="20.51"/>
<text text-anchor="middle" x="726.03" y="-86.83" font-family="Times,serif" font-size="9.00">57</text>
</g>
<!-- &#45;1&#45;&gt;57 -->
<g id="edge67" class="edge">
<title>&#45;1&#45;&gt;57</title>
<path fill="none" stroke="red" stroke-width="0.16" d="M1362.82,-151.21C1352.33,-149.43 1337.28,-147.04 1324.03,-145.54 1106.18,-120.85 1049.51,-137.42 832.03,-109.54 806.15,-106.22 777.02,-100.73 755.85,-96.42"/>
<polygon fill="red" stroke="red" stroke-width="0.16" points="756.36,-92.95 745.86,-94.35 754.94,-99.8 756.36,-92.95"/>
</g>
<!-- 59 -->
<g id="node20" class="node">
<title>59</title>
<ellipse fill="white" stroke="black" cx="1189.03" cy="-89.03" rx="20.51" ry="20.51"/>
<text text-anchor="middle" x="1189.03" y="-86.83" font-family="Times,serif" font-size="9.00">59</text>
</g>
<!-- &#45;1&#45;&gt;59 -->
<g id="edge18" class="edge">
<title>&#45;1&#45;&gt;59</title>
<path fill="none" stroke="red" stroke-width="0.12" d="M1362.88,-149.07C1332.92,-138.9 1258.98,-113.79 1217.83,-99.81"/>
<polygon fill="red" stroke="red" stroke-width="0.12" points="1218.72,-96.42 1208.13,-96.52 1216.47,-103.05 1218.72,-96.42"/>
</g>
<!-- 61 -->
<g id="node22" class="node">
<title>61</title>
<ellipse fill="white" stroke="black" cx="921.03" cy="-89.03" rx="20.51" ry="20.51"/>
<text text-anchor="middle" x="921.03" y="-86.83" font-family="Times,serif" font-size="9.00">61</text>
</g>
<!-- &#45;1&#45;&gt;61 -->
<g id="edge55" class="edge">
<title>&#45;1&#45;&gt;61</title>
<path fill="none" stroke="red" stroke-width="0.16" d="M1362.79,-151.44C1352.29,-149.79 1337.23,-147.46 1324.03,-145.54 1185.06,-125.28 1018.82,-103 951.53,-94.07"/>
<polygon fill="red" stroke="red" stroke-width="0.16" points="951.97,-90.59 941.6,-92.75 951.05,-97.53 951.97,-90.59"/>
</g>
<!-- 63 -->
<g id="node24" class="node">
<title>63</title>
<ellipse fill="white" stroke="black" cx="1287.03" cy="-89.03" rx="20.51" ry="20.51"/>
<text text-anchor="middle" x="1287.03" y="-86.83" font-family="Times,serif" font-size="9.00">63</text>
</g>
<!-- &#45;1&#45;&gt;63 -->
<g id="edge25" class="edge">
<title>&#45;1&#45;&gt;63</title>
<path fill="none" stroke="red" stroke-width="0.17" d="M1364.76,-145.5C1351.54,-136.06 1329.22,-120.13 1311.88,-107.76"/>
<polygon fill="red" stroke="red" stroke-width="0.17" points="1313.52,-104.63 1303.34,-101.67 1309.45,-110.33 1313.52,-104.63"/>
</g>
<!-- &#45;2 -->
<g id="node2" class="node">
<title>&#45;2</title>
<polygon fill="lightgray" stroke="black" points="934.03,-163.54 908.03,-163.54 908.03,-145.54 934.03,-145.54 934.03,-163.54"/>
<text text-anchor="middle" x="921.03" y="-152.34" font-family="Times,serif" font-size="9.00">&#45;2</text>
</g>
<!-- 3 -->
<g id="node12" class="node">
<title>3</title>
<ellipse fill="lightblue" stroke="black" cx="580.03" cy="-16.26" rx="16.03" ry="16.03"/>
<text text-anchor="middle" x="580.03" y="-14.06" font-family="Times,serif" font-size="9.00">3</text>
</g>
<!-- &#45;2&#45;&gt;3 -->
<g id="edge56" class="edge">
<title>&#45;2&#45;&gt;3</title>
<path fill="none" stroke="green" stroke-width="0.13" d="M907.85,-152.64C850.07,-148.59 621.03,-131.25 598.03,-109.54 580.15,-92.65 577.08,-63.66 577.59,-42.67"/>
<polygon fill="green" stroke="green" stroke-width="0.13" points="581.09,-42.7 578.12,-32.54 574.1,-42.34 581.09,-42.7"/>
</g>
<!-- &#45;2&#45;&gt;4 -->
<g id="edge29" class="edge">
<title>&#45;2&#45;&gt;4</title>
<path fill="none" stroke="red" stroke-width="0.28" d="M934.48,-145.74C946.08,-138.16 962.02,-125.47 969.03,-109.54 976.37,-92.85 980.16,-82.97 969.03,-68.53 948.58,-41.97 849.25,-26.37 801.19,-20.26"/>
<polygon fill="red" stroke="red" stroke-width="0.28" points="801.57,-16.78 791.22,-19.04 800.72,-23.73 801.57,-16.78"/>
</g>
<!-- 6 -->
<g id="node15" class="node">
<title>6</title>
<ellipse fill="lightblue" stroke="black" cx="921.03" cy="-16.26" rx="16.03" ry="16.03"/>
<text text-anchor="middle" x="921.03" y="-14.06" font-family="Times,serif" font-size="9.00">6</text>
</g>
<!-- &#45;2&#45;&gt;6 -->
<g id="edge33" class="edge">
<title>&#45;2&#45;&gt;6</title>
<path fill="none" stroke="red" stroke-width="0.1" d="M934.3,-153.22C959.87,-151.79 1015.61,-144.61 1040.03,-109.54 1050.45,-94.58 1050.05,-83.75 1040.03,-68.53 1019.53,-37.37 975.66,-25.07 947.3,-20.27"/>
<polygon fill="red" stroke="red" stroke-width="0.1" points="947.68,-16.78 937.27,-18.77 946.64,-23.71 947.68,-16.78"/>
</g>
<!-- 7 -->
<g id="node16" class="node">
<title>7</title>
<ellipse fill="lightblue" stroke="black" cx="425.03" cy="-16.26" rx="16.03" ry="16.03"/>
<text text-anchor="middle" x="425.03" y="-14.06" font-family="Times,serif" font-size="9.00">7</text>
</g>
<!-- &#45;2&#45;&gt;7 -->
<g id="edge68" class="edge">
<title>&#45;2&#45;&gt;7</title>
<path fill="none" stroke="red" stroke-width="0.11" d="M907.57,-152.53C835.77,-147.09 500.59,-121.14 482.03,-109.54 457.22,-94.03 441.53,-63.35 433.03,-41.63"/>
<polygon fill="red" stroke="red" stroke-width="0.11" points="436.26,-40.26 429.52,-32.08 429.68,-42.68 436.26,-40.26"/>
</g>
<!-- 58 -->
<g id="node19" class="node">
<title>58</title>
<ellipse fill="white" stroke="black" cx="338.03" cy="-89.03" rx="20.51" ry="20.51"/>
<text text-anchor="middle" x="338.03" y="-86.83" font-family="Times,serif" font-size="9.00">58</text>
</g>
<!-- &#45;2&#45;&gt;58 -->
<g id="edge40" class="edge">
<title>&#45;2&#45;&gt;58</title>
<path fill="none" stroke="red" stroke-width="0.32" d="M907.65,-152.7C837.4,-148.27 510.82,-127.04 411.03,-109.54 396.45,-106.98 380.55,-102.89 367.31,-99.11"/>
<polygon fill="red" stroke="red" stroke-width="0.32" points="367.93,-95.65 357.35,-96.19 365.96,-102.36 367.93,-95.65"/>
</g>
<!-- &#45;2&#45;&gt;59 -->
<g id="edge66" class="edge">
<title>&#45;2&#45;&gt;59</title>
<path fill="none" stroke="red" stroke-width="0.37" d="M934.05,-152.55C970.03,-149.52 1073.53,-138.7 1154.03,-109.54 1157.01,-108.46 1160.04,-107.15 1163,-105.72"/>
<polygon fill="red" stroke="red" stroke-width="0.37" points="1164.91,-108.67 1172.11,-100.91 1161.63,-102.48 1164.91,-108.67"/>
</g>
<!-- 60 -->
<g id="node21" class="node">
<title>60</title>
<ellipse fill="white" stroke="black" cx="862.03" cy="-89.03" rx="20.51" ry="20.51"/>
<text text-anchor="middle" x="862.03" y="-86.83" font-family="Times,serif" font-size="9.00">60</text>
</g>
<!-- &#45;2&#45;&gt;60 -->
<g id="edge51" class="edge">
<title>&#45;2&#45;&gt;60</title>
<path fill="none" stroke="red" stroke-width="0.28" d="M913.56,-145.5C905.8,-137.14 893.32,-123.71 882.58,-112.15"/>
<polygon fill="red" stroke="red" stroke-width="0.28" points="884.88,-109.48 875.51,-104.54 879.75,-114.24 884.88,-109.48"/>
</g>
<!-- &#45;2&#45;&gt;61 -->
<g id="edge42" class="edge">
<title>&#45;2&#45;&gt;61</title>
<path fill="none" stroke="green" stroke-width="0.27" d="M921.03,-145.5C921.03,-138.93 921.03,-129.21 921.03,-119.74"/>
<polygon fill="green" stroke="green" stroke-width="0.27" points="924.53,-119.72 921.03,-109.72 917.53,-119.72 924.53,-119.72"/>
</g>
<!-- &#45;2&#45;&gt;63 -->
<g id="edge32" class="edge">
<title>&#45;2&#45;&gt;63</title>
<path fill="none" stroke="red" stroke-width="0.32" d="M934.13,-152.46C987.81,-147.93 1191.1,-129.75 1252.03,-109.54 1255.04,-108.54 1258.08,-107.28 1261.06,-105.89"/>
<polygon fill="red" stroke="red" stroke-width="0.32" points="1262.95,-108.85 1270.18,-101.11 1259.7,-102.65 1262.95,-108.85"/>
</g>
<!-- &#45;3 -->
<g id="node3" class="node">
<title>&#45;3</title>
<polygon fill="lightgray" stroke="black" points="788.03,-163.54 762.03,-163.54 762.03,-145.54 788.03,-145.54 788.03,-163.54"/>
<text text-anchor="middle" x="775.03" y="-152.34" font-family="Times,serif" font-size="9.00">&#45;3</text>
</g>
<!-- 0 -->
<g id="node9" class="node">
<title>0</title>
<ellipse fill="lightblue" stroke="black" cx="1140.03" cy="-16.26" rx="16.03" ry="16.03"/>
<text text-anchor="middle" x="1140.03" y="-14.06" font-family="Times,serif" font-size="9.00">0</text>
</g>
<!-- &#45;3&#45;&gt;0 -->
<g id="edge31" class="edge">
<title>&#45;3&#45;&gt;0</title>
<path fill="none" stroke="green" stroke-width="0.21" d="M788.31,-152.32C822.26,-148.88 914.59,-137.47 986.03,-109.54 1036.85,-89.67 1090.18,-53.83 1118.82,-33.15"/>
<polygon fill="green" stroke="green" stroke-width="0.21" points="1121.22,-35.73 1127.22,-27 1117.08,-30.08 1121.22,-35.73"/>
</g>
<!-- &#45;3&#45;&gt;1 -->
<g id="edge50" class="edge">
<title>&#45;3&#45;&gt;1</title>
<path fill="none" stroke="red" stroke-width="0.14" d="M761.83,-153.71C709.67,-154.1 519.04,-152.51 482.03,-109.54 464.38,-89.03 480.44,-57.78 494.77,-37.43"/>
<polygon fill="red" stroke="red" stroke-width="0.14" points="497.74,-39.3 500.9,-29.19 492.13,-35.12 497.74,-39.3"/>
</g>
<!-- &#45;3&#45;&gt;4 -->
<g id="edge17" class="edge">
<title>&#45;3&#45;&gt;4</title>
<path fill="none" stroke="red" stroke-width="0.28" d="M775.03,-145.42C775.03,-125.64 775.03,-74.25 775.03,-42.88"/>
<polygon fill="red" stroke="red" stroke-width="0.28" points="778.53,-42.71 775.03,-32.71 771.53,-42.71 778.53,-42.71"/>
</g>
<!-- &#45;3&#45;&gt;5 -->
<g id="edge43" class="edge">
<title>&#45;3&#45;&gt;5</title>
<path fill="none" stroke="red" stroke-width="0.21" d="M788.31,-152.72C860.61,-148.21 1204.15,-125.97 1219.03,-109.54 1236.03,-90.77 1227.06,-60.54 1217.5,-39.83"/>
<polygon fill="red" stroke="red" stroke-width="0.21" points="1220.59,-38.19 1213,-30.79 1214.32,-41.3 1220.59,-38.19"/>
</g>
<!-- &#45;3&#45;&gt;6 -->
<g id="edge98" class="edge">
<title>&#45;3&#45;&gt;6</title>
<path fill="none" stroke="red" stroke-width="0.15" d="M788.23,-152.62C828.14,-149.55 946.19,-138.14 969.03,-109.54 980.41,-95.3 975.73,-85.48 969.03,-68.53 963.52,-54.57 952.21,-42.18 941.95,-33.08"/>
<polygon fill="red" stroke="red" stroke-width="0.15" points="944.01,-30.24 934.09,-26.52 939.52,-35.61 944.01,-30.24"/>
</g>
<!-- &#45;3&#45;&gt;7 -->
<g id="edge71" class="edge">
<title>&#45;3&#45;&gt;7</title>
<path fill="none" stroke="red" stroke-width="0.17" d="M761.56,-152.78C686.61,-148.48 323.76,-126.82 308.03,-109.54 295.76,-96.06 298.06,-83.78 308.03,-68.53 328.05,-37.91 370.83,-25.47 398.75,-20.49"/>
<polygon fill="red" stroke="red" stroke-width="0.17" points="399.31,-23.94 408.64,-18.92 398.21,-17.03 399.31,-23.94"/>
</g>
<!-- &#45;3&#45;&gt;57 -->
<g id="edge37" class="edge">
<title>&#45;3&#45;&gt;57</title>
<path fill="none" stroke="red" stroke-width="0.2" d="M768.83,-145.5C762.71,-137.57 753.06,-125.07 744.48,-113.93"/>
<polygon fill="red" stroke="red" stroke-width="0.2" points="747.07,-111.57 738.19,-105.79 741.53,-115.84 747.07,-111.57"/>
</g>
<!-- &#45;3&#45;&gt;58 -->
<g id="edge87" class="edge">
<title>&#45;3&#45;&gt;58</title>
<path fill="none" stroke="green" stroke-width="0.38" d="M761.71,-152.61C713.9,-149.13 546.66,-135.72 411.03,-109.54 396.5,-106.73 380.6,-102.61 367.35,-98.88"/>
<polygon fill="green" stroke="green" stroke-width="0.38" points="367.96,-95.41 357.38,-96 366.02,-102.14 367.96,-95.41"/>
</g>
<!-- &#45;3&#45;&gt;61 -->
<g id="edge15" class="edge">
<title>&#45;3&#45;&gt;61</title>
<path fill="none" stroke="green" stroke-width="0.3" d="M788.09,-149.72C810.16,-143.04 855.96,-128.13 892.03,-109.54 893.38,-108.84 894.74,-108.1 896.1,-107.32"/>
<polygon fill="green" stroke="green" stroke-width="0.3" points="898.24,-110.12 904.88,-101.86 894.54,-104.17 898.24,-110.12"/>
</g>
<!-- 62 -->
<g id="node23" class="node">
<title>62</title>
<ellipse fill="white" stroke="black" cx="512.03" cy="-89.03" rx="20.51" ry="20.51"/>
<text text-anchor="middle" x="512.03" y="-86.83" font-family="Times,serif" font-size="9.00">62</text>
</g>
<!-- &#45;3&#45;&gt;62 -->
<g id="edge81" class="edge">
<title>&#45;3&#45;&gt;62</title>
<path fill="none" stroke="red" stroke-width="0.11" d="M761.6,-151.43C728.06,-146 638.07,-130.51 565.03,-109.54 556.95,-107.22 548.33,-104.26 540.45,-101.36"/>
<polygon fill="red" stroke="red" stroke-width="0.11" points="541.54,-98.03 530.95,-97.76 539.06,-104.57 541.54,-98.03"/>
</g>
<!-- &#45;3&#45;&gt;63 -->
<g id="edge2" class="edge">
<title>&#45;3&#45;&gt;63</title>
<path fill="none" stroke="red" stroke-width="0.24" d="M788.32,-152.64C860.75,-147.72 1206.55,-123.62 1252.03,-109.54 1255.06,-108.6 1258.12,-107.38 1261.1,-106.01"/>
<polygon fill="red" stroke="red" stroke-width="0.24" points="1262.97,-108.98 1270.23,-101.26 1259.74,-102.77 1262.97,-108.98"/>
</g>
<!-- &#45;4 -->
<g id="node4" class="node">
<title>&#45;4</title>
<polygon fill="lightgray" stroke="black" points="1047.03,-163.54 1021.03,-163.54 1021.03,-145.54 1047.03,-145.54 1047.03,-163.54"/>
<text text-anchor="middle" x="1034.03" y="-152.34" font-family="Times,serif" font-size="9.00">&#45;4</text>
</g>
<!-- &#45;4&#45;&gt;1 -->
<g id="edge95" class="edge">
<title>&#45;4&#45;&gt;1</title>
<path fill="none" stroke="green" stroke-width="0.19" d="M1020.92,-151.98C988.2,-147.81 900.7,-134.97 832.03,-109.54 796.04,-96.21 792.27,-81.18 756.03,-68.53 670.36,-38.6 642.84,-55.47 555.03,-32.53 548.72,-30.88 542.01,-28.75 535.79,-26.61"/>
<polygon fill="green" stroke="green" stroke-width="0.19" points="536.52,-23.16 525.92,-23.08 534.16,-29.75 536.52,-23.16"/>
</g>
<!-- &#45;4&#45;&gt;2 -->
<g id="edge13" class="edge">
<title>&#45;4&#45;&gt;2</title>
<path fill="none" stroke="green" stroke-width="0.12" d="M1047.23,-153.77C1100.28,-154.4 1296.87,-153.69 1335.03,-109.54 1354.93,-86.52 1327.85,-53.84 1307.01,-34.18"/>
<polygon fill="green" stroke="green" stroke-width="0.12" points="1309.2,-31.44 1299.43,-27.33 1304.5,-36.63 1309.2,-31.44"/>
</g>
<!-- &#45;4&#45;&gt;6 -->
<g id="edge23" class="edge">
<title>&#45;4&#45;&gt;6</title>
<path fill="none" stroke="red" stroke-width="0.17" d="M1040.4,-145.29C1052,-129.16 1073.91,-92.92 1057.03,-68.53 1032.4,-32.92 979.68,-22.01 947.6,-18.69"/>
<polygon fill="red" stroke="red" stroke-width="0.17" points="947.84,-15.2 937.58,-17.83 947.25,-22.18 947.84,-15.2"/>
</g>
<!-- 56 -->
<g id="node17" class="node">
<title>56</title>
<ellipse fill="white" stroke="black" cx="628.03" cy="-89.03" rx="20.51" ry="20.51"/>
<text text-anchor="middle" x="628.03" y="-86.83" font-family="Times,serif" font-size="9.00">56</text>
</g>
<!-- &#45;4&#45;&gt;56 -->
<g id="edge6" class="edge">
<title>&#45;4&#45;&gt;56</title>
<path fill="none" stroke="red" stroke-width="0.2" d="M1021.02,-152.55C975.77,-148.97 821.19,-135.48 696.03,-109.54 683.11,-106.86 669.04,-102.99 657.08,-99.4"/>
<polygon fill="red" stroke="red" stroke-width="0.2" points="657.77,-95.95 647.19,-96.36 655.72,-102.65 657.77,-95.95"/>
</g>
<!-- &#45;4&#45;&gt;57 -->
<g id="edge76" class="edge">
<title>&#45;4&#45;&gt;57</title>
<path fill="none" stroke="red" stroke-width="0.32" d="M1020.97,-151.45C985.25,-145.67 883.03,-128.6 799.03,-109.54 784.6,-106.26 768.71,-102.09 755.45,-98.44"/>
<polygon fill="red" stroke="red" stroke-width="0.32" points="756.03,-94.97 745.45,-95.65 754.15,-101.71 756.03,-94.97"/>
</g>
<!-- &#45;4&#45;&gt;59 -->
<g id="edge74" class="edge">
<title>&#45;4&#45;&gt;59</title>
<path fill="none" stroke="green" stroke-width="0.14" d="M1047.27,-149.44C1069.67,-142.34 1116.32,-126.83 1154.03,-109.54 1156.91,-108.22 1159.88,-106.75 1162.8,-105.23"/>
<polygon fill="green" stroke="green" stroke-width="0.14" points="1164.75,-108.15 1171.87,-100.31 1161.41,-102 1164.75,-108.15"/>
</g>
<!-- &#45;4&#45;&gt;60 -->
<g id="edge38" class="edge">
<title>&#45;4&#45;&gt;60</title>
<path fill="none" stroke="green" stroke-width="0.36" d="M1020.94,-150.87C995.18,-145.32 936.51,-131.24 891.03,-109.54 889.67,-108.89 888.29,-108.17 886.91,-107.42"/>
<polygon fill="green" stroke="green" stroke-width="0.36" points="888.46,-104.26 878.1,-102.05 884.82,-110.24 888.46,-104.26"/>
</g>
<!-- &#45;4&#45;&gt;63 -->
<g id="edge48" class="edge">
<title>&#45;4&#45;&gt;63</title>
<path fill="none" stroke="green" stroke-width="0.26" d="M1047.2,-152.31C1081.73,-148.79 1177.42,-137.1 1252.03,-109.54 1255.01,-108.44 1258.03,-107.12 1260.99,-105.68"/>
<polygon fill="green" stroke="green" stroke-width="0.26" points="1262.9,-108.63 1270.09,-100.86 1259.62,-102.45 1262.9,-108.63"/>
</g>
<!-- &#45;5 -->
<g id="node5" class="node">
<title>&#45;5</title>
<polygon fill="lightgray" stroke="black" points="1315.03,-163.54 1289.03,-163.54 1289.03,-145.54 1315.03,-145.54 1315.03,-163.54"/>
<text text-anchor="middle" x="1302.03" y="-152.34" font-family="Times,serif" font-size="9.00">&#45;5</text>
</g>
<!-- &#45;5&#45;&gt;2 -->
<g id="edge62" class="edge">
<title>&#45;5&#45;&gt;2</title>
<path fill="none" stroke="green" stroke-width="0.44" d="M1315.21,-151.35C1361.38,-143.62 1513.4,-117.64 1520.03,-109.54 1531.58,-95.43 1531.45,-82.73 1520.03,-68.53 1494.31,-36.52 1368.65,-23.34 1313.3,-19.03"/>
<polygon fill="green" stroke="green" stroke-width="0.44" points="1313.45,-15.53 1303.22,-18.28 1312.93,-22.51 1313.45,-15.53"/>
</g>
<!-- &#45;5&#45;&gt;3 -->
<g id="edge41" class="edge">
<title>&#45;5&#45;&gt;3</title>
<path fill="none" stroke="green" stroke-width="0.29" d="M1310.13,-145.44C1325.65,-128.96 1356.29,-91.13 1335.03,-68.53 1290.42,-21.08 814.97,-37.44 750.03,-32.53 699.33,-28.69 640.22,-23.14 606.75,-19.9"/>
<polygon fill="green" stroke="green" stroke-width="0.29" points="606.72,-16.38 596.43,-18.89 606.05,-23.34 606.72,-16.38"/>
</g>
<!-- &#45;5&#45;&gt;62 -->
<g id="edge101" class="edge">
<title>&#45;5&#45;&gt;62</title>
<path fill="none" stroke="red" stroke-width="0.39" d="M1288.89,-153.01C1204.59,-149.55 738.95,-129.79 598.03,-109.54 579.14,-106.82 558.25,-102.13 541.79,-98.02"/>
<polygon fill="red" stroke="red" stroke-width="0.39" points="542.23,-94.52 531.68,-95.44 540.5,-101.3 542.23,-94.52"/>
</g>
<!-- &#45;5&#45;&gt;63 -->
<g id="edge80" class="edge">
<title>&#45;5&#45;&gt;63</title>
<path fill="none" stroke="green" stroke-width="0.28" d="M1300.13,-145.5C1298.54,-138.76 1296.17,-128.71 1293.88,-119.01"/>
<polygon fill="green" stroke="green" stroke-width="0.28" points="1297.26,-118.11 1291.56,-109.18 1290.45,-119.72 1297.26,-118.11"/>
</g>
<!-- &#45;6 -->
<g id="node6" class="node">
<title>&#45;6</title>
<polygon fill="lightgray" stroke="black" points="481.03,-163.54 455.03,-163.54 455.03,-145.54 481.03,-145.54 481.03,-163.54"/>
<text text-anchor="middle" x="468.03" y="-152.34" font-family="Times,serif" font-size="9.00">&#45;6</text>
</g>
<!-- &#45;6&#45;&gt;0 -->
<g id="edge96" class="edge">
<title>&#45;6&#45;&gt;0</title>
<path fill="none" stroke="green" stroke-width="0.17" d="M481.25,-151.52C519.13,-145.56 627.28,-127.37 658.03,-109.54 679.53,-97.07 673.87,-79.76 696.03,-68.53 714.82,-59 1021.21,-28.75 1113.76,-19.79"/>
<polygon fill="green" stroke="green" stroke-width="0.17" points="1114.1,-23.27 1123.72,-18.83 1113.43,-16.3 1114.1,-23.27"/>
</g>
<!-- &#45;6&#45;&gt;1 -->
<g id="edge9" class="edge">
<title>&#45;6&#45;&gt;1</title>
<path fill="none" stroke="green" stroke-width="0.19" d="M454.92,-152.38C403.29,-147.7 215.93,-129.42 199.03,-109.54 187.23,-95.65 187.03,-82.24 199.03,-68.53 238.75,-23.14 409.41,-46.69 468.03,-32.53 474.15,-31.05 480.61,-29.02 486.61,-26.92"/>
<polygon fill="green" stroke="green" stroke-width="0.19" points="487.97,-30.15 496.14,-23.41 485.55,-23.58 487.97,-30.15"/>
</g>
<!-- &#45;6&#45;&gt;3 -->
<g id="edge44" class="edge">
<title>&#45;6&#45;&gt;3</title>
<path fill="none" stroke="red" stroke-width="0.15" d="M454.9,-152.61C415.2,-149.5 297.75,-138.02 275.03,-109.54 263.67,-95.29 263,-82.22 275.03,-68.53 316.31,-21.58 494.88,-52.76 554.03,-32.53 555.29,-32.1 556.55,-31.6 557.8,-31.06"/>
<polygon fill="red" stroke="red" stroke-width="0.15" points="559.77,-33.98 567.04,-26.27 556.55,-27.77 559.77,-33.98"/>
</g>
<!-- &#45;6&#45;&gt;4 -->
<g id="edge92" class="edge">
<title>&#45;6&#45;&gt;4</title>
<path fill="none" stroke="red" stroke-width="0.18" d="M454.93,-151.96C420.02,-147.45 326.15,-133.31 308.03,-109.54 296.99,-95.04 295.87,-82.1 308.03,-68.53 315.47,-60.23 650.65,-28.73 748.49,-19.7"/>
<polygon fill="red" stroke="red" stroke-width="0.18" points="749.07,-23.16 758.71,-18.76 748.43,-16.19 749.07,-23.16"/>
</g>
<!-- &#45;6&#45;&gt;7 -->
<g id="edge28" class="edge">
<title>&#45;6&#45;&gt;7</title>
<path fill="none" stroke="green" stroke-width="0.46" d="M454.99,-152.36C393.4,-146.72 134.28,-122.31 123.03,-109.54 45.03,-20.96 311.82,-16.1 398.64,-16.8"/>
<polygon fill="green" stroke="green" stroke-width="0.46" points="398.71,-20.3 408.75,-16.92 398.79,-13.3 398.71,-20.3"/>
</g>
<!-- &#45;6&#45;&gt;56 -->
<g id="edge93" class="edge">
<title>&#45;6&#45;&gt;56</title>
<path fill="none" stroke="red" stroke-width="0.26" d="M481.13,-148.34C506.87,-138.12 564.61,-115.21 599.55,-101.34"/>
<polygon fill="red" stroke="red" stroke-width="0.26" points="601.17,-104.46 609.17,-97.52 598.59,-97.96 601.17,-104.46"/>
</g>
<!-- &#45;6&#45;&gt;58 -->
<g id="edge64" class="edge">
<title>&#45;6&#45;&gt;58</title>
<path fill="none" stroke="green" stroke-width="0.35" d="M454.98,-147.86C436.53,-139.76 401.86,-124.22 373.03,-109.54 370.27,-108.13 367.41,-106.62 364.57,-105.09"/>
<polygon fill="green" stroke="green" stroke-width="0.35" points="366.15,-101.97 355.7,-100.22 362.78,-108.1 366.15,-101.97"/>
</g>
<!-- &#45;6&#45;&gt;59 -->
<g id="edge94" class="edge">
<title>&#45;6&#45;&gt;59</title>
<path fill="none" stroke="red" stroke-width="0.19" d="M481.21,-151.76C494.33,-150.03 515.05,-147.39 533.03,-145.54 726.45,-125.66 775.31,-126.13 969.03,-109.54 1036.69,-103.75 1116.02,-96.63 1158.49,-92.8"/>
<polygon fill="red" stroke="red" stroke-width="0.19" points="1159.07,-96.26 1168.72,-91.88 1158.44,-89.29 1159.07,-96.26"/>
</g>
<!-- &#45;6&#45;&gt;60 -->
<g id="edge86" class="edge">
<title>&#45;6&#45;&gt;60</title>
<path fill="none" stroke="red" stroke-width="0.47" d="M481.26,-151.66C522.18,-145.83 650.29,-127.34 756.03,-109.54 781.61,-105.23 810.56,-99.87 831.73,-95.86"/>
<polygon fill="red" stroke="red" stroke-width="0.47" points="832.58,-99.26 841.75,-93.96 831.27,-92.39 832.58,-99.26"/>
</g>
<!-- &#45;6&#45;&gt;62 -->
<g id="edge59" class="edge">
<title>&#45;6&#45;&gt;62</title>
<path fill="none" stroke="green" stroke-width="0.21" d="M473.61,-145.5C478.97,-137.75 487.36,-125.64 494.94,-114.71"/>
<polygon fill="green" stroke="green" stroke-width="0.21" points="497.95,-116.51 500.76,-106.3 492.19,-112.53 497.95,-116.51"/>
</g>
<!-- &#45;7 -->
<g id="node7" class="node">
<title>&#45;7</title>
<polygon fill="lightgray" stroke="black" points="568.03,-163.54 542.03,-163.54 542.03,-145.54 568.03,-145.54 568.03,-163.54"/>
<text text-anchor="middle" x="555.03" y="-152.34" font-family="Times,serif" font-size="9.00">&#45;7</text>
</g>
<!-- &#45;7&#45;&gt;3 -->
<g id="edge16" class="edge">
<title>&#45;7&#45;&gt;3</title>
<path fill="none" stroke="green" stroke-width="0.21" d="M541.86,-149.98C524.54,-144.51 494.84,-132.22 482.03,-109.54 473.07,-93.67 472.45,-84.03 482.03,-68.53 500.84,-38.09 522.59,-49.59 554.03,-32.53 555.17,-31.91 556.33,-31.27 557.5,-30.61"/>
<polygon fill="green" stroke="green" stroke-width="0.21" points="559.44,-33.54 566.37,-25.52 555.96,-27.47 559.44,-33.54"/>
</g>
<!-- &#45;7&#45;&gt;7 -->
<g id="edge53" class="edge">
<title>&#45;7&#45;&gt;7</title>
<path fill="none" stroke="green" stroke-width="0.2" d="M541.89,-151.84C482.22,-144.1 239.6,-112.49 237.03,-109.54 225.06,-95.8 225.97,-83.01 237.03,-68.53 256.66,-42.84 351.76,-26.93 398.71,-20.52"/>
<polygon fill="green" stroke="green" stroke-width="0.2" points="399.29,-23.98 408.74,-19.2 398.37,-17.04 399.29,-23.98"/>
</g>
<!-- &#45;7&#45;&gt;57 -->
<g id="edge34" class="edge">
<title>&#45;7&#45;&gt;57</title>
<path fill="none" stroke="red" stroke-width="0.53" d="M568.09,-150.23C592.69,-143.8 647.35,-128.56 691.03,-109.54 693.94,-108.27 696.92,-106.84 699.85,-105.34"/>
<polygon fill="red" stroke="red" stroke-width="0.53" points="701.79,-108.27 708.93,-100.44 698.47,-102.11 701.79,-108.27"/>
</g>
<!-- &#45;7&#45;&gt;58 -->
<g id="edge5" class="edge">
<title>&#45;7&#45;&gt;58</title>
<path fill="none" stroke="red" stroke-width="0.3" d="M541.87,-151.61C511.38,-146.89 433.89,-133.34 373.03,-109.54 370.08,-108.39 367.08,-107.03 364.13,-105.57"/>
<polygon fill="red" stroke="red" stroke-width="0.3" points="365.5,-102.33 355.03,-100.72 362.21,-108.51 365.5,-102.33"/>
</g>
<!-- &#45;7&#45;&gt;60 -->
<g id="edge36" class="edge">
<title>&#45;7&#45;&gt;60</title>
<path fill="none" stroke="green" stroke-width="0.34" d="M568.23,-150.81C614,-141.34 766.72,-109.75 832.01,-96.24"/>
<polygon fill="green" stroke="green" stroke-width="0.34" points="832.98,-99.62 842.07,-94.16 831.57,-92.76 832.98,-99.62"/>
</g>
<!-- &#45;7&#45;&gt;61 -->
<g id="edge27" class="edge">
<title>&#45;7&#45;&gt;61</title>
<path fill="none" stroke="red" stroke-width="0.32" d="M568.09,-153.94C614.13,-154.93 772.52,-154.66 892.03,-109.54 893.45,-109 894.87,-108.39 896.28,-107.71"/>
<polygon fill="red" stroke="red" stroke-width="0.32" points="898.27,-110.6 905.2,-102.58 894.78,-104.53 898.27,-110.6"/>
</g>
<!-- &#45;7&#45;&gt;62 -->
<g id="edge88" class="edge">
<title>&#45;7&#45;&gt;62</title>
<path fill="none" stroke="green" stroke-width="0.18" d="M549.59,-145.5C544.38,-137.81 536.26,-125.81 528.89,-114.93"/>
<polygon fill="green" stroke="green" stroke-width="0.18" points="531.73,-112.87 523.22,-106.56 525.93,-116.8 531.73,-112.87"/>
</g>
<!-- &#45;7&#45;&gt;63 -->
<g id="edge73" class="edge">
<title>&#45;7&#45;&gt;63</title>
<path fill="none" stroke="green" stroke-width="0.54" d="M568.23,-153.05C649.89,-149.96 1087.16,-132.55 1219.03,-109.54 1232.04,-107.27 1246.12,-103.47 1258.07,-99.82"/>
<polygon fill="green" stroke="green" stroke-width="0.54" points="1259.47,-103.05 1267.94,-96.69 1257.35,-96.37 1259.47,-103.05"/>
</g>
<!-- &#45;8 -->
<g id="node8" class="node">
<title>&#45;8</title>
<polygon fill="lightgray" stroke="black" points="351.03,-163.54 325.03,-163.54 325.03,-145.54 351.03,-145.54 351.03,-163.54"/>
<text text-anchor="middle" x="338.03" y="-152.34" font-family="Times,serif" font-size="9.00">&#45;8</text>
</g>
<!-- &#45;8&#45;&gt;1 -->
<g id="edge14" class="edge">
<title>&#45;8&#45;&gt;1</title>
<path fill="none" stroke="green" stroke-width="0.12" d="M324.72,-153.49C263.47,-152.87 14.85,-145.62 85.03,-68.53 142.58,-5.31 384.56,-50.97 468.03,-32.53 474.18,-31.17 480.65,-29.18 486.65,-27.09"/>
<polygon fill="green" stroke="green" stroke-width="0.12" points="488.02,-30.32 496.18,-23.56 485.58,-23.76 488.02,-30.32"/>
</g>
<!-- &#45;8&#45;&gt;3 -->
<g id="edge3" class="edge">
<title>&#45;8&#45;&gt;3</title>
<path fill="none" stroke="red" stroke-width="0.23" d="M324.81,-150.18C307.08,-144.88 276.31,-132.73 263.03,-109.54 253.98,-93.72 250.96,-82.18 263.03,-68.53 306.19,-19.71 492.33,-53.45 554.03,-32.53 555.29,-32.1 556.55,-31.61 557.8,-31.07"/>
<polygon fill="red" stroke="red" stroke-width="0.23" points="559.77,-33.99 567.04,-26.29 556.55,-27.78 559.77,-33.99"/>
</g>
<!-- &#45;8&#45;&gt;7 -->
<g id="edge19" class="edge">
<title>&#45;8&#45;&gt;7</title>
<path fill="none" stroke="green" stroke-width="0.14" d="M324.78,-153.95C268.61,-155.4 51.26,-157.78 9.03,-109.54 -2.97,-95.82 -3.04,-82.18 9.03,-68.53 34.92,-39.25 310.27,-23.01 398.2,-18.54"/>
<polygon fill="green" stroke="green" stroke-width="0.14" points="398.61,-22.03 408.42,-18.04 398.26,-15.04 398.61,-22.03"/>
</g>
<!-- &#45;8&#45;&gt;56 -->
<g id="edge10" class="edge">
<title>&#45;8&#45;&gt;56</title>
<path fill="none" stroke="green" stroke-width="0.25" d="M351.13,-151.34C385.55,-145.47 481.37,-128.58 560.03,-109.54 572.77,-106.45 586.71,-102.55 598.63,-99.05"/>
<polygon fill="green" stroke="green" stroke-width="0.25" points="599.93,-102.32 608.51,-96.1 597.93,-95.61 599.93,-102.32"/>
</g>
<!-- &#45;8&#45;&gt;57 -->
<g id="edge21" class="edge">
<title>&#45;8&#45;&gt;57</title>
<path fill="none" stroke="green" stroke-width="0.27" d="M351.26,-152.4C395.22,-148.48 540.34,-134.38 658.03,-109.54 670.86,-106.83 684.81,-102.99 696.72,-99.43"/>
<polygon fill="green" stroke="green" stroke-width="0.27" points="698.04,-102.69 706.58,-96.41 695.99,-96 698.04,-102.69"/>
</g>
<!-- &#45;8&#45;&gt;58 -->
<g id="edge89" class="edge">
<title>&#45;8&#45;&gt;58</title>
<path fill="none" stroke="green" stroke-width="0.22" d="M338.03,-145.5C338.03,-138.93 338.03,-129.21 338.03,-119.74"/>
<polygon fill="green" stroke="green" stroke-width="0.22" points="341.53,-119.72 338.03,-109.72 334.53,-119.72 341.53,-119.72"/>
</g>
<!-- &#45;8&#45;&gt;59 -->
<g id="edge83" class="edge">
<title>&#45;8&#45;&gt;59</title>
<path fill="none" stroke="green" stroke-width="0.22" d="M351.33,-152.53C371.72,-150.99 411.9,-147.98 446.03,-145.54 678.44,-128.93 736.76,-127.83 969.03,-109.54 1036.73,-104.21 1116.04,-96.92 1158.5,-92.93"/>
<polygon fill="green" stroke="green" stroke-width="0.22" points="1159.1,-96.39 1168.72,-91.97 1158.44,-89.42 1159.1,-96.39"/>
</g>
<!-- 1&#45;&gt;1 -->
<g id="edge35" class="edge">
<title>1&#45;&gt;1</title>
<path fill="none" stroke="red" stroke-width="0.38" d="M522.97,-27.36C533.75,-32.76 545.3,-29.06 545.3,-16.26 545.3,-7.47 539.84,-2.97 532.93,-2.77"/>
<polygon fill="red" stroke="red" stroke-width="0.38" points="531.88,0.58 522.97,-5.17 533.52,-6.23 531.88,0.58"/>
</g>
<!-- 4&#45;&gt;4 -->
<g id="edge4" class="edge">
<title>4&#45;&gt;4</title>
<path fill="none" stroke="red" stroke-width="0.14" d="M786.97,-27.36C797.75,-32.76 809.3,-29.06 809.3,-16.26 809.3,-7.47 803.84,-2.97 796.93,-2.77"/>
<polygon fill="red" stroke="red" stroke-width="0.14" points="795.88,0.58 786.97,-5.17 797.52,-6.23 795.88,0.58"/>
</g>
<!-- 5&#45;&gt;5 -->
<g id="edge75" class="edge">
<title>5&#45;&gt;5</title>
<path fill="none" stroke="red" stroke-width="0.23" d="M1216.97,-27.36C1227.75,-32.76 1239.3,-29.06 1239.3,-16.26 1239.3,-7.47 1233.84,-2.97 1226.93,-2.77"/>
<polygon fill="red" stroke="red" stroke-width="0.23" points="1225.88,0.58 1216.97,-5.17 1227.52,-6.23 1225.88,0.58"/>
</g>
<!-- 6&#45;&gt;6 -->
<g id="edge54" class="edge">
<title>6&#45;&gt;6</title>
<path fill="none" stroke="green" stroke-width="0.23" d="M932.97,-27.36C943.75,-32.76 955.3,-29.06 955.3,-16.26 955.3,-7.47 949.84,-2.97 942.93,-2.77"/>
<polygon fill="green" stroke="green" stroke-width="0.23" points="941.88,0.58 932.97,-5.17 943.52,-6.23 941.88,0.58"/>
</g>
<!-- 7&#45;&gt;7 -->
<g id="edge12" class="edge">
<title>7&#45;&gt;7</title>
<path fill="none" stroke="red" stroke-width="0.15" d="M436.97,-27.36C447.75,-32.76 459.3,-29.06 459.3,-16.26 459.3,-7.47 453.84,-2.97 446.93,-2.77"/>
<polygon fill="red" stroke="red" stroke-width="0.15" points="445.88,0.58 436.97,-5.17 447.52,-6.23 445.88,0.58"/>
</g>
<!-- 56&#45;&gt;4 -->
<g id="edge7" class="edge">
<title>56&#45;&gt;4</title>
<path fill="none" stroke="red" stroke-width="0.26" d="M645.69,-77.83C651.2,-74.75 657.32,-71.42 663.03,-68.53 692.95,-53.38 728.23,-37.55 751.09,-27.57"/>
<polygon fill="red" stroke="red" stroke-width="0.26" points="752.58,-30.73 760.36,-23.54 749.79,-24.31 752.58,-30.73"/>
</g>
<!-- 56&#45;&gt;6 -->
<g id="edge85" class="edge">
<title>56&#45;&gt;6</title>
<path fill="none" stroke="red" stroke-width="0.11" d="M644.97,-77.2C650.55,-74.01 656.9,-70.78 663.03,-68.53 705.72,-52.84 838.14,-30.53 894.84,-21.4"/>
<polygon fill="red" stroke="red" stroke-width="0.11" points="895.49,-24.84 904.82,-19.81 894.39,-17.93 895.49,-24.84"/>
</g>
<!-- 57&#45;&gt;1 -->
<g id="edge52" class="edge">
<title>57&#45;&gt;1</title>
<path fill="none" stroke="green" stroke-width="0.2" d="M706.76,-81.92C675.05,-71.82 609.92,-50.95 555.03,-32.53 548.85,-30.45 542.19,-28.17 535.97,-26.01"/>
<polygon fill="green" stroke="green" stroke-width="0.2" points="536.67,-22.55 526.08,-22.57 534.37,-29.16 536.67,-22.55"/>
</g>
<!-- 57&#45;&gt;2 -->
<g id="edge77" class="edge">
<title>57&#45;&gt;2</title>
<path fill="none" stroke="red" stroke-width="0.21" d="M745.87,-83.8C767.1,-79.4 801.81,-72.61 832.03,-68.53 1015.95,-43.71 1067.33,-74.78 1248.03,-32.53 1252.99,-31.37 1258.16,-29.7 1263.05,-27.89"/>
<polygon fill="red" stroke="red" stroke-width="0.21" points="1264.56,-31.05 1272.54,-24.08 1261.95,-24.56 1264.56,-31.05"/>
</g>
<!-- 57&#45;&gt;3 -->
<g id="edge79" class="edge">
<title>57&#45;&gt;3</title>
<path fill="none" stroke="red" stroke-width="0.28" d="M707.84,-79.21C681.47,-66.43 632.61,-42.75 603.54,-28.66"/>
<polygon fill="red" stroke="red" stroke-width="0.28" points="605.03,-25.49 594.5,-24.28 601.97,-31.79 605.03,-25.49"/>
</g>
<!-- 57&#45;&gt;4 -->
<g id="edge45" class="edge">
<title>57&#45;&gt;4</title>
<path fill="none" stroke="red" stroke-width="0.19" d="M737.4,-71.62C744.2,-61.79 752.92,-49.2 760.26,-38.61"/>
<polygon fill="red" stroke="red" stroke-width="0.19" points="763.2,-40.5 766.02,-30.28 757.45,-36.51 763.2,-40.5"/>
</g>
<!-- 57&#45;&gt;5 -->
<g id="edge49" class="edge">
<title>57&#45;&gt;5</title>
<path fill="none" stroke="green" stroke-width="0.21" d="M746.28,-83.84C767.56,-79.55 802.04,-72.9 832.03,-68.53 979.34,-47.04 1020.3,-67.35 1165.03,-32.53 1170.32,-31.26 1175.85,-29.47 1181.05,-27.56"/>
<polygon fill="green" stroke="green" stroke-width="0.21" points="1182.48,-30.76 1190.5,-23.84 1179.92,-24.24 1182.48,-30.76"/>
</g>
<!-- 57&#45;&gt;7 -->
<g id="edge47" class="edge">
<title>57&#45;&gt;7</title>
<path fill="none" stroke="green" stroke-width="0.14" d="M706.5,-82.02C692.96,-77.95 674.49,-72.6 658.03,-68.53 582.22,-49.75 562.15,-50.01 486.03,-32.53 474.26,-29.82 461.27,-26.61 450.31,-23.82"/>
<polygon fill="green" stroke="green" stroke-width="0.14" points="451.09,-20.41 440.54,-21.32 449.36,-27.19 451.09,-20.41"/>
</g>
<!-- 58&#45;&gt;1 -->
<g id="edge24" class="edge">
<title>58&#45;&gt;1</title>
<path fill="none" stroke="green" stroke-width="0.15" d="M355.21,-77.77C360.8,-74.62 367.1,-71.27 373.03,-68.53 383.64,-63.64 449.47,-39.59 486.25,-26.24"/>
<polygon fill="green" stroke="green" stroke-width="0.15" points="487.57,-29.48 495.78,-22.78 485.18,-22.9 487.57,-29.48"/>
</g>
<!-- 58&#45;&gt;6 -->
<g id="edge61" class="edge">
<title>58&#45;&gt;6</title>
<path fill="none" stroke="red" stroke-width="0.4" d="M358.52,-85.08C386.42,-81.09 437.96,-73.87 482.03,-68.53 631.13,-50.45 669.05,-51.54 818.03,-32.53 844.3,-29.18 874.23,-24.66 895.03,-21.41"/>
<polygon fill="red" stroke="red" stroke-width="0.4" points="895.67,-24.86 905.01,-19.84 894.58,-17.94 895.67,-24.86"/>
</g>
<!-- 59&#45;&gt;0 -->
<g id="edge84" class="edge">
<title>59&#45;&gt;0</title>
<path fill="none" stroke="red" stroke-width="0.29" d="M1177.67,-71.62C1170.87,-61.79 1162.15,-49.2 1154.81,-38.61"/>
<polygon fill="red" stroke="red" stroke-width="0.29" points="1157.62,-36.51 1149.05,-30.28 1151.87,-40.5 1157.62,-36.51"/>
</g>
<!-- 59&#45;&gt;2 -->
<g id="edge102" class="edge">
<title>59&#45;&gt;2</title>
<path fill="none" stroke="green" stroke-width="0.34" d="M1205.22,-76.35C1221.85,-64.34 1247.82,-45.58 1266.03,-32.43"/>
<polygon fill="green" stroke="green" stroke-width="0.34" points="1268.21,-35.18 1274.27,-26.48 1264.11,-29.5 1268.21,-35.18"/>
</g>
<!-- 59&#45;&gt;5 -->
<g id="edge91" class="edge">
<title>59&#45;&gt;5</title>
<path fill="none" stroke="green" stroke-width="0.67" d="M1193.41,-68.69C1195.25,-60.55 1197.42,-50.96 1199.38,-42.29"/>
<polygon fill="green" stroke="green" stroke-width="0.67" points="1202.84,-42.84 1201.63,-32.32 1196.01,-41.3 1202.84,-42.84"/>
</g>
<!-- 59&#45;&gt;7 -->
<g id="edge78" class="edge">
<title>59&#45;&gt;7</title>
<path fill="none" stroke="green" stroke-width="0.15" d="M1168.72,-86.14C1129.93,-82.53 1042.6,-74.53 969.03,-68.53 754.49,-51.02 698.55,-66.78 486.03,-32.53 474.11,-30.61 461.1,-27.49 450.17,-24.58"/>
<polygon fill="green" stroke="green" stroke-width="0.15" points="451,-21.18 440.43,-21.89 449.14,-27.93 451,-21.18"/>
</g>
<!-- 60&#45;&gt;1 -->
<g id="edge104" class="edge">
<title>60&#45;&gt;1</title>
<path fill="none" stroke="red" stroke-width="0.32" d="M845.18,-76.96C839.61,-73.76 833.24,-70.58 827.03,-68.53 711.28,-30.17 673.69,-60.65 555.03,-32.53 548.68,-31.02 541.96,-28.95 535.74,-26.81"/>
<polygon fill="red" stroke="red" stroke-width="0.32" points="536.48,-23.36 525.88,-23.26 534.1,-29.94 536.48,-23.36"/>
</g>
<!-- 60&#45;&gt;2 -->
<g id="edge22" class="edge">
<title>60&#45;&gt;2</title>
<path fill="none" stroke="green" stroke-width="0.36" d="M877.53,-75.59C881.7,-72.82 886.35,-70.22 891.03,-68.53 1041.04,-14.4 1093.01,-69.93 1248.03,-32.53 1252.99,-31.33 1258.15,-29.65 1263.04,-27.83"/>
<polygon fill="green" stroke="green" stroke-width="0.36" points="1264.54,-31 1272.52,-24.03 1261.94,-24.5 1264.54,-31"/>
</g>
<!-- 60&#45;&gt;4 -->
<g id="edge65" class="edge">
<title>60&#45;&gt;4</title>
<path fill="none" stroke="green" stroke-width="0.15" d="M846.48,-75.38C832.21,-63.77 810.99,-46.51 795.38,-33.81"/>
<polygon fill="green" stroke="green" stroke-width="0.15" points="797.33,-30.89 787.36,-27.29 792.91,-36.32 797.33,-30.89"/>
</g>
<!-- 60&#45;&gt;5 -->
<g id="edge20" class="edge">
<title>60&#45;&gt;5</title>
<path fill="none" stroke="green" stroke-width="0.45" d="M877.87,-75.48C881.96,-72.79 886.49,-70.24 891.03,-68.53 1005.93,-25.1 1045.96,-62.63 1165.03,-32.53 1170.3,-31.19 1175.83,-29.38 1181.03,-27.46"/>
<polygon fill="green" stroke="green" stroke-width="0.45" points="1182.45,-30.67 1190.48,-23.76 1179.9,-24.15 1182.45,-30.67"/>
</g>
<!-- 61&#45;&gt;0 -->
<g id="edge39" class="edge">
<title>61&#45;&gt;0</title>
<path fill="none" stroke="green" stroke-width="0.28" d="M940.47,-81.75C980.3,-68.88 1071.15,-39.52 1115.18,-25.29"/>
<polygon fill="green" stroke="green" stroke-width="0.28" points="1116.38,-28.58 1124.82,-22.18 1114.23,-21.92 1116.38,-28.58"/>
</g>
<!-- 61&#45;&gt;3 -->
<g id="edge103" class="edge">
<title>61&#45;&gt;3</title>
<path fill="none" stroke="red" stroke-width="0.14" d="M905.16,-75.59C901.07,-72.89 896.55,-70.32 892.03,-68.53 839.82,-47.82 671.68,-27.46 606.35,-20.12"/>
<polygon fill="red" stroke="red" stroke-width="0.14" points="606.41,-16.61 596.08,-18.98 605.63,-23.57 606.41,-16.61"/>
</g>
<!-- 61&#45;&gt;4 -->
<g id="edge46" class="edge">
<title>61&#45;&gt;4</title>
<path fill="none" stroke="green" stroke-width="0.21" d="M904.79,-76.37C900.72,-73.65 896.29,-70.86 892.03,-68.53 861.25,-51.61 823.78,-36 799.67,-26.56"/>
<polygon fill="green" stroke="green" stroke-width="0.21" points="800.81,-23.25 790.22,-22.91 798.28,-29.78 800.81,-23.25"/>
</g>
<!-- 61&#45;&gt;6 -->
<g id="edge57" class="edge">
<title>61&#45;&gt;6</title>
<path fill="none" stroke="red" stroke-width="0.27" d="M921.03,-68.32C921.03,-60.38 921.03,-51.13 921.03,-42.69"/>
<polygon fill="red" stroke="red" stroke-width="0.27" points="924.53,-42.61 921.03,-32.61 917.53,-42.61 924.53,-42.61"/>
</g>
<!-- 61&#45;&gt;61 -->
<g id="edge63" class="edge">
<title>61&#45;&gt;61</title>
<path fill="none" stroke="red" stroke-width="0.78" d="M938.46,-100.19C949.26,-102.88 959.54,-99.16 959.54,-89.03 959.54,-82.23 954.9,-78.32 948.58,-77.3"/>
<polygon fill="red" stroke="red" stroke-width="0.78" points="948.24,-73.82 938.46,-77.88 948.64,-80.8 948.24,-73.82"/>
</g>
<!-- 62&#45;&gt;1 -->
<g id="edge60" class="edge">
<title>62&#45;&gt;1</title>
<path fill="none" stroke="red" stroke-width="0.29" d="M511.76,-68.32C511.64,-60.38 511.51,-51.13 511.39,-42.69"/>
<polygon fill="red" stroke="red" stroke-width="0.29" points="514.89,-42.56 511.25,-32.61 507.89,-42.66 514.89,-42.56"/>
</g>
<!-- 62&#45;&gt;3 -->
<g id="edge30" class="edge">
<title>62&#45;&gt;3</title>
<path fill="none" stroke="red" stroke-width="0.2" d="M525.79,-73.71C536.24,-62.84 550.68,-47.81 562.04,-35.99"/>
<polygon fill="red" stroke="red" stroke-width="0.2" points="564.58,-38.4 568.99,-28.76 559.53,-33.55 564.58,-38.4"/>
</g>
<!-- 62&#45;&gt;4 -->
<g id="edge26" class="edge">
<title>62&#45;&gt;4</title>
<path fill="none" stroke="red" stroke-width="0.13" d="M531.8,-82.71C578.85,-70.05 697.45,-38.14 749.68,-24.09"/>
<polygon fill="red" stroke="red" stroke-width="0.13" points="750.73,-27.43 759.48,-21.45 748.91,-20.67 750.73,-27.43"/>
</g>
<!-- 62&#45;&gt;6 -->
<g id="edge90" class="edge">
<title>62&#45;&gt;6</title>
<path fill="none" stroke="green" stroke-width="0.14" d="M531.77,-83.17C549.15,-78.98 575.18,-72.93 598.03,-68.53 655.34,-57.49 828.87,-31.13 895.03,-21.17"/>
<polygon fill="green" stroke="green" stroke-width="0.14" points="895.67,-24.61 905.04,-19.66 894.63,-17.69 895.67,-24.61"/>
</g>
<!-- 62&#45;&gt;7 -->
<g id="edge82" class="edge">
<title>62&#45;&gt;7</title>
<path fill="none" stroke="red" stroke-width="0.34" d="M496.48,-75.38C482.21,-63.77 460.99,-46.51 445.38,-33.81"/>
<polygon fill="red" stroke="red" stroke-width="0.34" points="447.33,-30.89 437.36,-27.29 442.91,-36.32 447.33,-30.89"/>
</g>
<!-- 62&#45;&gt;62 -->
<g id="edge97" class="edge">
<title>62&#45;&gt;62</title>
<path fill="none" stroke="green" stroke-width="0.45" d="M529.46,-100.19C540.26,-102.88 550.54,-99.16 550.54,-89.03 550.54,-82.23 545.9,-78.32 539.58,-77.3"/>
<polygon fill="green" stroke="green" stroke-width="0.45" points="539.24,-73.82 529.46,-77.88 539.64,-80.8 539.24,-73.82"/>
</g>
<!-- 63&#45;&gt;0 -->
<g id="edge8" class="edge">
<title>63&#45;&gt;0</title>
<path fill="none" stroke="red" stroke-width="0.44" d="M1268.71,-79.21C1242.16,-66.43 1192.97,-42.75 1163.7,-28.66"/>
<polygon fill="red" stroke="red" stroke-width="0.44" points="1165.13,-25.46 1154.6,-24.28 1162.09,-31.77 1165.13,-25.46"/>
</g>
<!-- 63&#45;&gt;2 -->
<g id="edge105" class="edge">
<title>63&#45;&gt;2</title>
<path fill="none" stroke="red" stroke-width="0.45" d="M1287.03,-68.32C1287.03,-60.38 1287.03,-51.13 1287.03,-42.69"/>
<polygon fill="red" stroke="red" stroke-width="0.45" points="1290.53,-42.61 1287.03,-32.61 1283.53,-42.61 1290.53,-42.61"/>
</g>
<!-- 63&#45;&gt;3 -->
<g id="edge58" class="edge">
<title>63&#45;&gt;3</title>
<path fill="none" stroke="green" stroke-width="0.25" d="M1267.93,-81.43C1254.44,-77.04 1235.84,-71.55 1219.03,-68.53 1013.28,-31.51 958.37,-49.87 750.03,-32.53 699.36,-28.31 640.24,-22.89 606.76,-19.77"/>
<polygon fill="green" stroke="green" stroke-width="0.25" points="606.72,-16.25 596.44,-18.81 606.07,-23.22 606.72,-16.25"/>
</g>
<!-- 63&#45;&gt;5 -->
<g id="edge1" class="edge">
<title>63&#45;&gt;5</title>
<path fill="none" stroke="green" stroke-width="0.27" d="M1271.99,-75.05C1258.78,-63.64 1239.44,-46.96 1224.94,-34.45"/>
<polygon fill="green" stroke="green" stroke-width="0.27" points="1226.91,-31.52 1217.05,-27.63 1222.33,-36.82 1226.91,-31.52"/>
</g>
<!-- 63&#45;&gt;7 -->
<g id="edge72" class="edge">
<title>63&#45;&gt;7</title>
<path fill="none" stroke="red" stroke-width="0.27" d="M1267.96,-81.28C1254.48,-76.83 1235.88,-71.32 1219.03,-68.53 897.25,-15.21 808.68,-80.34 486.03,-32.53 474.09,-30.76 461.07,-27.67 450.14,-24.73"/>
<polygon fill="red" stroke="red" stroke-width="0.27" points="450.98,-21.33 440.41,-22 449.1,-28.07 450.98,-21.33"/>
</g>
<!-- 63&#45;&gt;63 -->
<g id="edge100" class="edge">
<title>63&#45;&gt;63</title>
<path fill="none" stroke="green" stroke-width="0.26" d="M1304.46,-100.19C1315.26,-102.88 1325.54,-99.16 1325.54,-89.03 1325.54,-82.23 1320.9,-78.32 1314.58,-77.3"/>
<polygon fill="green" stroke="green" stroke-width="0.26" points="1314.24,-73.82 1304.46,-77.88 1314.64,-80.8 1314.24,-73.82"/>
</g>
</g>
</svg>
